<svg viewBox="0 0 63 36" height="36" width="63" fill="none" xmlns="http://www.w3.org/2000/svg">
<path fill="currentColor" d="M47.0239 10.6522L52.1669 1.64895C52.4571 1.14423 52.2816 0.503129 51.7889 0.209825C51.2962 -0.0834073 50.655 0.0871143 50.3716 0.59178L45.161 9.71096C41.1856 7.87622 36.7108 6.8531 31.8985 6.8531C27.0861 6.8531 22.6113 7.87622 18.6359 9.71096L13.4253 0.59178C13.1351 0.0870609 12.5007 -0.0834429 12.0012 0.209825C11.5018 0.50304 11.333 1.14423 11.6232 1.64895L16.7663 10.6522C7.89757 15.5085 1.89061 24.5799 0.898438 35.1997H62.8984C61.9063 24.5799 55.8993 15.5085 47.0238 10.6522H47.0239ZM17.664 26.4011C16.2264 26.4011 15.0655 25.2211 15.0655 23.7751C15.0655 22.3223 16.2331 21.1492 17.664 21.1492C19.1016 21.1492 20.2625 22.3292 20.2625 23.7751C20.2695 25.2211 19.1016 26.4011 17.664 26.4011ZM46.1262 26.4011C44.6886 26.4011 43.5277 25.2211 43.5277 23.7751C43.5277 22.3223 44.6953 21.1492 46.1262 21.1492C47.5638 21.1492 48.7247 22.3292 48.7247 23.7751C48.7318 25.2211 47.5638 26.4011 46.1262 26.4011Z" />
</svg>
