<svg viewBox="0 0 39 46" height="46" width="39" fill="none" xmlns="http://www.w3.org/2000/svg">
<path fill="white" d="M21.6443 4.03452C24.6748 0.0855621 28.8877 0.0663452 28.8877 0.0663452C28.8877 0.0663452 29.5143 3.779 26.5038 7.35551C23.2893 11.1745 19.6355 10.5496 19.6355 10.5496C19.6355 10.5496 18.9495 7.54621 21.6443 4.03452V4.03452ZM20.021 13.1503C21.58 13.1503 24.4733 11.0315 28.2395 11.0315C34.7224 11.0315 37.2728 15.5923 37.2728 15.5923C37.2728 15.5923 32.2847 18.1137 32.2847 24.2317C32.2847 31.1335 38.4984 33.5121 38.4984 33.5121C38.4984 33.5121 34.1548 45.5994 28.2878 45.5994C25.5931 45.5994 23.4982 43.8041 20.6589 43.8041C17.7656 43.8041 14.8944 45.6663 13.0241 45.6663C7.66679 45.6665 0.898438 34.2004 0.898438 24.9837C0.898438 15.9156 6.6274 11.1585 12.0009 11.1585C15.4941 11.1585 18.2049 13.1503 20.021 13.1503V13.1503Z" clip-rule="evenodd" fill-rule="evenodd" />
</svg>
