<svg viewBox="0 0 55 40" height="40" width="55" fill="none" xmlns="http://www.w3.org/2000/svg">
<path fill="currentColor" d="M0.613281 0.225403H54.3397V39.0278H0.613281V0.225403ZM8.36288 8.47665C8.75143 8.08811 9.38138 8.08811 9.76993 8.47665L14.7446 13.4513C15.1331 13.8399 15.1331 14.4698 14.7446 14.8584L9.76993 19.833C9.38138 20.2216 8.75143 20.2216 8.36288 19.833C7.97434 19.4445 7.97434 18.8145 8.36288 18.426L12.634 14.1548L8.36288 9.8837C7.97434 9.49515 7.97434 8.8652 8.36288 8.47665ZM16.534 22.1143C15.9845 22.1143 15.5391 22.5597 15.5391 23.1092C15.5391 23.6587 15.9845 24.1041 16.534 24.1041H25.4884C26.0379 24.1041 26.4833 23.6587 26.4833 23.1092C26.4833 22.5597 26.0379 22.1143 25.4884 22.1143H16.534Z" clip-rule="evenodd" fill-rule="evenodd" />
</svg>
