<svg width="44" height="44" viewBox="0 0 52 52" fill="none" xmlns="http://www.w3.org/2000/svg">
<path d="M21.7588 27.4022C22.0336 22.6094 24.079 14.802 28.5236 6H6.00006C3.79092 6 2.00006 7.79086 2.00006 10V42C2.00006 44.2092 3.79092 46 6.00006 46H28.735C28.3672 43.6252 28.2408 41.2548 28.2502 39.0346C27.353 39.1516 26.4424 39.2148 25.5294 39.2148C22.3036 39.2148 19.106 38.427 16.4322 37.2544C13.7899 36.0954 11.5029 34.4902 10.2351 32.7296C9.76718 32.0798 9.91469 31.1736 10.5647 30.7056C11.2145 30.2378 12.1207 30.3852 12.5885 31.0352C13.4385 32.2156 15.2105 33.5518 17.5972 34.5986C19.9528 35.6318 22.7552 36.3148 25.5294 36.3148C26.4688 36.3148 27.4114 36.2364 28.339 36.0926C28.4724 33.65 28.7306 31.5148 28.9364 29.9336H24.1764C22.8458 29.9336 21.6766 28.8396 21.7588 27.4022ZM31.156 38.4622C32.3768 38.1404 33.5446 37.729 34.6266 37.2544C37.2692 36.0954 39.5562 34.4902 40.8238 32.7296C41.2918 32.0798 41.1442 31.1736 40.4944 30.7056C39.8444 30.2378 38.9382 30.3852 38.4704 31.0352C37.6204 32.2156 35.8486 33.5518 33.4618 34.5986C32.7714 34.9014 32.0426 35.174 31.2876 35.4082C31.4398 33.1888 31.688 31.2466 31.8794 29.7964C32.073 28.328 30.9296 27.0336 29.4554 27.0336H24.692C25.0766 22.4392 27.179 14.7405 31.7868 6H46C48.2092 6 50 7.79086 50 10V42C50 44.2092 48.2092 46 46 46H31.6716C31.2398 43.446 31.1176 40.8638 31.156 38.4622ZM15.0001 14.55C15.8009 14.55 16.4501 15.1992 16.4501 16V20.7059C16.4501 21.5067 15.8009 22.1558 15.0001 22.1558C14.1993 22.1558 13.5501 21.5067 13.5501 20.7059V16C13.5501 15.1992 14.1993 14.55 15.0001 14.55ZM38.45 16C38.45 15.1992 37.8008 14.55 37 14.55C36.1992 14.55 35.55 15.1992 35.55 16V20.7059C35.55 21.5067 36.1992 22.1558 37 22.1558C37.8008 22.1558 38.45 21.5067 38.45 20.7059V16Z" fill="white" />
</svg>
